<svg xmlns="http://www.w3.org/2000/svg" version="1.1" xmlns:xlink="http://www.w3.org/1999/xlink" xmlns:svgjs="http://svgjs.dev/svgjs" width="1500" height="272" viewBox="0 0 1500 272"><g transform="matrix(1,0,0,1,-0.9090909090909918,0.226041843724488)"><svg viewBox="0 0 396 72" data-background-color="#ffffff" preserveAspectRatio="xMidYMid meet" height="272" width="1500" xmlns="http://www.w3.org/2000/svg" xmlns:xlink="http://www.w3.org/1999/xlink"><g id="tight-bounds" transform="matrix(1,0,0,1,0.2400000000000091,-0.05983460569177623)"><svg viewBox="0 0 395.52 72.11966921138354" height="72.11966921138354" width="395.52"><g><svg viewBox="0 0 520.7209005090945 94.94897627470078" height="72.11966921138354" width="395.52"><g><rect width="4.59527909555712" height="94.94897627470078" x="108.57609498537737" y="0" fill="#ffe933" opacity="1" stroke-width="0" stroke="transparent" fill-opacity="1" class="rect-qz-0" data-fill-palette-color="primary" rx="1%" id="qz-0" data-palette-color="#ffe933"></rect></g><g transform="matrix(1,0,0,1,125.20090050909448,0.23619148327039596)"><svg viewBox="0 0 395.52 94.47659330815999" height="94.47659330815999" width="395.52"><g id="textblocktransform"><svg viewBox="0 0 395.52 94.47659330815999" height="94.47659330815999" width="395.52" id="textblock"><g><svg viewBox="0 0 395.52 50.95616" height="50.95616" width="395.52"><g transform="matrix(1,0,0,1,0,0)"><svg width="395.52" viewBox="3.13 -36.79 292.94 37.74" height="50.95616" data-palette-color="#ffe933"><path d="M3.13-17.14L3.13-17.14Q3.13-22.75 5.18-26.84 7.23-30.93 11.25-33.17 15.28-35.4 21.22-35.4L21.22-35.4Q22.58-35.4 24.41-35.24 26.25-35.08 27.99-34.72 29.74-34.35 30.88-33.74 32.03-33.13 32.03-32.2L32.03-32.2Q32.03-31.76 31.74-31.25L31.74-31.25 29.69-27.81Q28.61-28.42 27.03-29.44 25.44-30.47 23.49-31.31 21.53-32.15 19.34-32.15L19.34-32.15Q16.46-32.15 14.54-30.82 12.62-29.49 11.51-27.33 10.4-25.17 9.94-22.63 9.47-20.09 9.47-17.7L9.47-17.7Q9.47-13.77 10.9-10.38 12.33-6.98 15.21-4.9 18.09-2.81 22.44-2.81L22.44-2.81Q24.24-2.81 26.04-3.11 27.83-3.42 29.3-3.83 30.76-4.25 31.64-4.55 32.52-4.86 32.52-4.86L32.52-4.86 33.52-2.95Q30.79-0.81 27.45 0.07 24.12 0.95 20.63 0.95L20.63 0.95Q15.28 0.95 11.35-1.26 7.42-3.47 5.27-7.53 3.13-11.6 3.13-17.14ZM40.45-33.5L40.45-33.5Q40.45-34.89 41.46-35.84 42.48-36.79 43.89-36.79L43.89-36.79Q45.33-36.79 46.34-35.84 47.34-34.89 47.34-33.5L47.34-33.5Q47.34-32.15 46.34-31.2 45.33-30.25 43.89-30.25L43.89-30.25Q42.48-30.25 41.46-31.2 40.45-32.15 40.45-33.5ZM46.7-24.15L46.7-2.44 50.95-2.44 50.95-0.61Q50.12-0.15 48.22 0.15 46.31 0.44 44.55 0.44L44.55 0.44Q43.06 0.44 42.05 0.01 41.04-0.42 41.04-1.9L41.04-1.9 41.04-22.61 36.74-22.61 36.74-24.44Q37.42-24.76 38.79-24.98 40.16-25.2 41.75-25.32 43.33-25.44 44.6-25.44L44.6-25.44Q45.6-25.44 46.15-25.28 46.7-25.12 46.7-24.15L46.7-24.15ZM58.52-1.9L58.52-22.56 54.22-22.56 54.22-24.39Q54.9-24.71 56.27-24.93 57.64-25.15 59.22-25.27 60.81-25.39 62.08-25.39L62.08-25.39Q63.08-25.39 63.63-25.23 64.18-25.07 64.18-24.1L64.18-24.1 64.18-22.9Q64.67-23.07 66.23-23.77 67.79-24.46 69.98-25.11 72.16-25.76 74.48-25.76L74.48-25.76Q77.31-25.76 78.75-24.74 80.2-23.73 80.71-21.98 81.22-20.24 81.22-17.99L81.22-17.99 81.22-2.44 85.47-2.44 85.47-0.61Q84.64-0.15 82.73 0.15 80.83 0.44 79.07 0.44L79.07 0.44Q77.58 0.44 76.58 0.01 75.58-0.42 75.58-1.9L75.58-1.9 75.58-17.5Q75.58-19.97 74.92-21.06 74.26-22.14 72.16-22.14L72.16-22.14Q71.16-22.14 69.86-21.94 68.55-21.73 67.29-21.46 66.04-21.19 65.17-20.97 64.3-20.75 64.18-20.7L64.18-20.7 64.18-7.35Q64.18-4.35 64.45-2.69 64.72-1.03 64.86-0.34L64.86-0.34Q64.2 0.02 63.18 0.23 62.15 0.44 61.37 0.44L61.37 0.44Q60.13 0.44 59.32-0.06 58.52-0.56 58.52-1.9L58.52-1.9ZM89.86-12.5L89.86-12.5Q89.86-16.38 91.51-19.37 93.16-22.36 96.24-24.06 99.33-25.76 103.65-25.76L103.65-25.76Q106.9-25.76 109.23-24.41 111.56-23.07 112.81-20.9 114.06-18.73 114.06-16.21L114.06-16.21Q114.06-15.06 113.76-13.92 113.47-12.77 112.65-12.01 111.83-11.25 110.2-11.25L110.2-11.25 95.6-11.25Q96.09-6.86 99.06-4.53 102.04-2.2 106.34-2.2L106.34-2.2Q109.34-2.2 112.59-3.25L112.59-3.25 113.4-1.61Q111.42-0.27 108.88 0.34 106.34 0.95 103.9 0.95L103.9 0.95Q101.21 0.95 98.7 0.11 96.18-0.73 94.19-2.42 92.2-4.1 91.03-6.62 89.86-9.13 89.86-12.5ZM95.55-14.26L108.2-14.26Q108.34-14.75 108.39-15.23 108.44-15.72 108.44-16.26L108.44-16.26Q108.44-17.87 107.74-19.43 107.05-21 105.69-22.02 104.34-23.05 102.36-23.05L102.36-23.05Q99.87-23.05 98.42-21.81 96.97-20.58 96.32-18.58 95.67-16.58 95.55-14.26L95.55-14.26ZM119.59-3.2L121.55-5.91Q122.43-5.27 123.78-4.32 125.14-3.37 126.78-2.64 128.43-1.9 130.14-1.9L130.14-1.9Q131.75-1.9 133.02-2.84 134.29-3.78 134.29-5.49L134.29-5.49Q134.29-6.84 133.22-7.75 132.14-8.67 130.7-9.31 129.26-9.96 128.14-10.45L128.14-10.45Q126.24-11.3 124.39-12.28 122.55-13.26 121.34-14.78 120.13-16.31 120.13-18.8L120.13-18.8Q120.13-21.31 121.73-22.84 123.33-24.37 125.72-25.06 128.12-25.76 130.53-25.76L130.53-25.76Q132.05-25.76 133.71-25.57 135.37-25.39 136.53-24.98 137.69-24.56 137.69-23.85L137.69-23.85Q137.69-23.68 137.54-23.34L137.54-23.34 135.88-20.14Q135.27-20.56 134.08-21.2 132.9-21.85 131.42-22.38 129.95-22.9 128.38-22.9L128.38-22.9Q126.7-22.9 125.62-22.12 124.55-21.34 124.55-19.9L124.55-19.9Q124.55-18.41 125.62-17.41 126.7-16.41 128.38-15.66 130.07-14.92 131.95-14.21 133.83-13.5 135.51-12.59 137.2-11.67 138.27-10.33 139.35-8.98 139.35-6.96L139.35-6.96Q139.35-4.81 138.43-3.33 137.51-1.86 136.01-0.95 134.51-0.05 132.7 0.35 130.9 0.76 129.14 0.76L129.14 0.76Q127.63 0.76 125.94 0.43 124.26 0.1 122.78-0.42 121.3-0.93 120.38-1.5 119.45-2.08 119.45-2.59L119.45-2.59Q119.45-2.91 119.59-3.2L119.59-3.2ZM162.85-3.39L163.63-1.71Q161.93-0.66 160.13 0.05 158.34 0.76 155.6 0.76L155.6 0.76Q152.04 0.76 149.96-1.37 147.89-3.49 147.89-7.25L147.89-7.25 147.89-22 142.83-22 142.83-23.1Q142.83-24.19 143.31-24.6 143.79-25 144.84-25L144.84-25 147.89-25 147.89-30.81Q147.89-32.15 148.69-32.63 149.5-33.11 150.74-33.11L150.74-33.11Q151.53-33.11 152.55-32.92 153.58-32.74 154.24-32.35L154.24-32.35Q154.09-31.67 153.82-29.98 153.55-28.3 153.55-25L153.55-25 162.05-25 162.05-23.95Q162.05-22.88 161.57-22.44 161.1-22 160.05-22L160.05-22 153.55-22 153.55-7.69Q153.55-2.15 157.6-2.15L157.6-2.15Q158.83-2.15 160.05-2.49 161.27-2.83 162.07-3.15 162.88-3.47 162.85-3.39L162.85-3.39ZM166.2-22.51L166.2-24.34Q166.88-24.66 168.25-24.88 169.61-25.1 171.2-25.22 172.79-25.34 174.06-25.34L174.06-25.34Q175.06-25.34 175.61-25.18 176.16-25.02 176.16-24.05L176.16-24.05 176.16-18.19 179.26-22.61Q181.45-25.76 185.09-25.76L185.09-25.76Q185.53-25.76 186.23-25.67 186.92-25.59 187.49-25.29 188.05-25 188.05-24.39L188.05-24.39Q188.05-24.15 188-24L188-24 186.95-20.56Q186.02-20.85 185.28-20.97 184.53-21.09 183.9-21.09L183.9-21.09Q182.58-21.09 181.38-20.36 180.19-19.63 179.18-18.58 178.18-17.53 177.41-16.52 176.65-15.5 176.16-14.94L176.16-14.94 176.16-7.35Q176.16-4.35 176.43-2.69 176.69-1.03 176.84-0.34L176.84-0.34Q176.18 0.02 175.16 0.23 174.13 0.44 173.35 0.44L173.35 0.44Q172.1 0.44 171.3-0.06 170.49-0.56 170.49-1.9L170.49-1.9 170.49-22.51 166.2-22.51ZM191.29-12.5L191.29-12.5Q191.29-16.38 192.94-19.37 194.59-22.36 197.68-24.06 200.76-25.76 205.09-25.76L205.09-25.76Q208.33-25.76 210.66-24.41 213-23.07 214.24-20.9 215.49-18.73 215.49-16.21L215.49-16.21Q215.49-15.06 215.19-13.92 214.9-12.77 214.08-12.01 213.26-11.25 211.63-11.25L211.63-11.25 197.03-11.25Q197.52-6.86 200.5-4.53 203.47-2.2 207.77-2.2L207.77-2.2Q210.77-2.2 214.02-3.25L214.02-3.25 214.83-1.61Q212.85-0.27 210.31 0.34 207.77 0.95 205.33 0.95L205.33 0.95Q202.64 0.95 200.13 0.11 197.61-0.73 195.62-2.42 193.63-4.1 192.46-6.62 191.29-9.13 191.29-12.5ZM196.98-14.26L209.63-14.26Q209.77-14.75 209.82-15.23 209.87-15.72 209.87-16.26L209.87-16.26Q209.87-17.87 209.17-19.43 208.48-21 207.12-22.02 205.77-23.05 203.79-23.05L203.79-23.05Q201.3-23.05 199.85-21.81 198.4-20.58 197.75-18.58 197.1-16.58 196.98-14.26L196.98-14.26ZM237.21-1.9L237.21-2.15Q237.21-2.17 236.52-1.73 235.82-1.29 234.64-0.71 233.45-0.12 232.01 0.32 230.57 0.76 229.06 0.76L229.06 0.76Q226.93 0.76 225.13-0.01 223.32-0.78 222.22-2.4 221.12-4.03 221.12-6.54L221.12-6.54Q221.12-9.35 222.75-11.04 224.37-12.72 227.23-13.46 230.08-14.21 233.77-14.21L233.77-14.21 237.21-14.21 237.21-16.04Q237.21-17.94 236.97-19.58 236.72-21.22 235.91-22.2 235.09-23.19 233.35-23.19L233.35-23.19Q231.72-23.19 230.05-22.44 228.37-21.68 226.86-20.61 225.35-19.53 224.13-18.55L224.13-18.55 222.12-21.24Q221.76-21.68 221.76-22.14L221.76-22.14Q221.76-22.95 222.76-23.61 223.76-24.27 225.32-24.76 226.88-25.24 228.63-25.5 230.38-25.76 231.86-25.76L231.86-25.76Q234.87-25.76 237.37-24.79 239.87-23.83 241.37-21.69 242.88-19.56 242.88-16.04L242.88-16.04 242.88-2.44 247.12-2.44 247.12-0.61Q246.29-0.15 244.39 0.15 242.48 0.44 240.7 0.44L240.7 0.44Q239.51 0.44 238.4 0.04 237.28-0.37 237.21-1.9L237.21-1.9ZM230.77-2.86L230.77-2.86Q231.62-2.86 232.72-3.08 233.82-3.3 234.84-3.6 235.87-3.91 236.54-4.13 237.21-4.35 237.21-4.35L237.21-4.35 237.21-11.21 233.11-11.21Q231.89-11.21 230.39-10.88 228.89-10.55 227.8-9.61 226.71-8.67 226.71-6.81L226.71-6.81Q226.71-5.08 227.76-3.97 228.81-2.86 230.77-2.86ZM275.66-18.19L275.66-7.35Q275.66-4.35 275.94-2.69 276.22-1.03 276.37-0.34L276.37-0.34Q275.69 0.02 274.67 0.23 273.66 0.44 272.88 0.44L272.88 0.44Q271.63 0.44 270.83-0.06 270.02-0.56 270.02-1.9L270.02-1.9 270.02-17.85Q270.02-19.85 269.59-20.97 269.17-22.09 267.17-22.09L267.17-22.09Q266.19-22.09 264.88-21.89 263.58-21.68 262.34-21.4 261.11-21.12 260.3-20.91 259.5-20.7 259.52-20.7L259.52-20.7 259.52-7.35Q259.52-4.35 259.79-2.69 260.06-1.03 260.21-0.34L260.21-0.34Q259.55 0.02 258.52 0.23 257.5 0.44 256.72 0.44L256.72 0.44Q255.47 0.44 254.67-0.06 253.86-0.56 253.86-1.9L253.86-1.9 253.86-22.56 249.56-22.56 249.56-24.39Q250.25-24.71 251.61-24.93 252.98-25.15 254.57-25.27 256.15-25.39 257.42-25.39L257.42-25.39Q258.42-25.39 258.97-25.23 259.52-25.07 259.52-24.1L259.52-24.1 259.52-22.9Q259.52-22.88 260.44-23.29 261.35-23.71 262.86-24.29 264.36-24.88 266.12-25.32 267.87-25.76 269.56-25.76L269.56-25.76Q271.27-25.76 272.8-25.17 274.34-24.58 274.98-22.9L274.98-22.9Q274.98-22.88 275.92-23.29 276.86-23.71 278.37-24.29 279.88-24.88 281.67-25.32 283.45-25.76 285.16-25.76L285.16-25.76Q288.04-25.76 289.47-24.79 290.9-23.83 291.36-22.13 291.82-20.43 291.82-18.19L291.82-18.19 291.82-2.44 296.07-2.44 296.07-0.61Q295.24-0.15 293.34 0.15 291.43 0.44 289.67 0.44L289.67 0.44Q288.19 0.44 287.17 0.01 286.16-0.42 286.16-1.9L286.16-1.9 286.16-17.85Q286.16-19.85 285.73-20.97 285.3-22.09 283.33-22.09L283.33-22.09Q282.72-22.09 281.62-21.95 280.52-21.8 279.3-21.58 278.08-21.36 277.05-21.14 276.03-20.92 275.51-20.8L275.51-20.8Q275.66-19.6 275.66-18.19L275.66-18.19Z" opacity="1" transform="matrix(1,0,0,1,0,0)" fill="#ffe933" class="wordmark-text-0" data-fill-palette-color="primary" id="text-0"></path></svg></g></svg></g><g transform="matrix(1,0,0,1,0,62.985686428159994)"><svg viewBox="0 0 179.85572670861833 31.490906879999997" height="31.490906879999997" width="179.85572670861833"><g transform="matrix(1,0,0,1,0,0)"><svg width="179.85572670861833" viewBox="5.76 -41.94 305.76 53.54" height="31.490906879999997" data-palette-color="#ff2222"><path d="M5.76 0L5.76-37.35 26.93-37.35 26.93-33.74 9.91-33.74 9.91-20.85 23.63-20.85 23.63-17.26 9.91-17.26 9.91-3.59 27.59-3.59 27.59 0 5.76 0ZM48.36-25.73L48.36-25.73Q43.6-25.73 38.67-22.92L38.67-22.92 38.67 0 34.62 0 34.62-29.05 38.18-29.05 38.57-26.05Q41.23-28.22 45.19-29.15L45.19-29.15Q46.8-29.54 48.97-29.54 51.14-29.54 52.81-29.04 54.47-28.54 55.44-27.44L55.44-27.44Q57.22-25.46 57.22-20.24L57.22-20.24 57.22 0 53.12 0 53.12-19.48Q53.12-23 52.44-24.01 51.76-25.02 50.82-25.38 49.88-25.73 48.36-25.73ZM70.75-36.01L70.75-36.01Q69.11-36.01 68.65-36.47L68.65-36.47Q67.91-37.23 67.91-38.56 67.91-39.89 68.07-40.47 68.23-41.04 68.57-41.36L68.57-41.36Q69.14-41.94 70.34-41.94 71.55-41.94 72.08-41.82 72.6-41.7 72.92-41.36L72.92-41.36Q73.53-40.77 73.53-39.44 73.53-38.11 73.4-37.54 73.26-36.96 72.92-36.62L72.92-36.62Q72.33-36.01 70.75-36.01ZM62.67 10.74L63.76 7.74Q65.99 8.3 67 8.19 68.01 8.08 68.42 7.37 68.82 6.67 68.82 5.08L68.82 5.08 68.82-29.05 72.75-29.05 72.75 4.71Q72.75 7.96 71.7 9.57L71.7 9.57Q70.41 11.6 67.21 11.6L67.21 11.6Q64.2 11.6 62.67 10.74L62.67 10.74ZM83.73-14.45L83.73-14.45Q83.73-20 84.29-22.19 84.86-24.39 85.67-25.67 86.49-26.95 87.88-27.81L87.88-27.81Q90.67-29.54 96.11-29.54L96.11-29.54Q103.97-29.54 106.22-25.66L106.22-25.66Q107.56-23.32 107.76-19.04L107.76-19.04Q107.83-17.02 107.83-14.58 107.83-12.13 107.67-10.02 107.51-7.91 107.05-6.23 106.58-4.54 105.75-3.28 104.92-2.03 103.56-1.17L103.56-1.17Q100.87 0.49 95.72 0.49L95.72 0.49Q88.01 0.49 85.59-3.32L85.59-3.32Q84.1-5.69 83.85-9.96L83.85-9.96Q83.73-12.01 83.73-14.45ZM90.37-4.27Q91.25-3.61 92.58-3.28 93.91-2.95 96.22-2.95 98.53-2.95 100.1-3.61 101.68-4.27 102.47-5.73 103.26-7.18 103.47-9.5 103.68-11.82 103.68-14.89 103.68-17.97 103.5-20.02 103.31-22.07 102.58-23.41L102.58-23.41Q101.12-26.05 96.06-26.05L96.06-26.05Q90.72-26.05 89.1-23.41L89.1-23.41Q88.3-22.07 88.08-20 87.86-17.92 87.86-15.48 87.86-13.04 87.92-11.34 87.98-9.64 88.24-8.29 88.49-6.93 88.99-5.93 89.49-4.93 90.37-4.27ZM116.13 10.21L117.23 7.03Q119.01 7.67 120.14 7.67 121.28 7.67 121.63 7.6 121.99 7.54 122.35 7.35L122.35 7.35Q123.21 6.88 123.62 5.83L123.62 5.83Q124.65 3.34 125.41 0.37L125.41 0.37 114.2-29.05 118.72-29.05 126.28-7.64 127.43-3.88 128.48-7.67 135.17-29.05 139.42-29.05 127.16 6.88Q125.82 11.08 120.96 11.08L120.96 11.08Q117.89 11.08 116.13 10.21L116.13 10.21ZM172.23-25.73L172.23-25.73Q168.25-25.73 163.53-22.92L163.53-22.92 163.53 0 159.48 0 159.48-29.05 163.05-29.05 163.44-26.05Q167.71-29.54 173.01-29.54L173.01-29.54Q176.03-29.54 177.78-28.67 179.53-27.81 180.31-25.83L180.31-25.83Q185.7-29.54 190.56-29.54L190.56-29.54Q195.15-29.54 196.93-27.44L196.93-27.44Q198.64-25.42 198.64-20.24L198.64-20.24 198.64 0 194.54 0 194.54-19.48Q194.54-23 193.86-24.01 193.17-25.02 192.23-25.38 191.29-25.73 190.04-25.73 188.78-25.73 187.67-25.5 186.56-25.27 185.41-24.88L185.41-24.88Q183.09-24.07 180.97-22.83L180.97-22.83Q181.09-21.36 181.09-20.24L181.09-20.24 181.09 0 176.99 0 176.99-19.48Q176.99-23 176.3-24.01 175.62-25.02 174.68-25.38 173.74-25.73 172.23-25.73ZM208.55-14.45L208.55-14.45Q208.55-20 209.11-22.19 209.67-24.39 210.49-25.67 211.31-26.95 212.7-27.81L212.7-27.81Q215.49-29.54 220.93-29.54L220.93-29.54Q228.79-29.54 231.04-25.66L231.04-25.66Q232.38-23.32 232.58-19.04L232.58-19.04Q232.65-17.02 232.65-14.58 232.65-12.13 232.49-10.02 232.33-7.91 231.87-6.23 231.4-4.54 230.57-3.28 229.74-2.03 228.38-1.17L228.38-1.17Q225.69 0.49 220.54 0.49L220.54 0.49Q212.82 0.49 210.41-3.32L210.41-3.32Q208.92-5.69 208.67-9.96L208.67-9.96Q208.55-12.01 208.55-14.45ZM215.19-4.27Q216.07-3.61 217.4-3.28 218.73-2.95 221.04-2.95 223.35-2.95 224.92-3.61 226.5-4.27 227.29-5.73 228.08-7.18 228.29-9.5 228.5-11.82 228.5-14.89 228.5-17.97 228.32-20.02 228.13-22.07 227.4-23.41L227.4-23.41Q225.93-26.05 220.88-26.05L220.88-26.05Q215.53-26.05 213.92-23.41L213.92-23.41Q213.12-22.07 212.9-20 212.68-17.92 212.68-15.48 212.68-13.04 212.74-11.34 212.8-9.64 213.06-8.29 213.31-6.93 213.81-5.93 214.31-4.93 215.19-4.27ZM249.2 0L239.24-29.05 243.61-29.05 251.23-5.35 251.96-2.93 252.64-5.35 259.92-29.05 264.34-29.05 254.52 0 249.2 0ZM274.71-36.01L274.71-36.01Q273.07-36.01 272.61-36.47L272.61-36.47Q271.88-37.23 271.88-38.56 271.88-39.89 272.04-40.47 272.19-41.04 272.51-41.36L272.51-41.36Q273.1-41.94 274.31-41.94 275.51-41.94 276.04-41.82 276.56-41.7 276.91-41.36L276.91-41.36Q277.49-40.77 277.49-39.44 277.49-38.11 277.36-37.54 277.22-36.96 276.91-36.62L276.91-36.62Q276.3-36.01 274.71-36.01ZM272.78 0L272.73-29.05 276.74-29.05 276.74 0 272.78 0ZM310.03-5.03L311.23-1.54Q306.18 0.49 300.07 0.49L300.07 0.49Q296.53 0.49 294.07-0.24L294.07-0.24Q290.14-1.37 288.84-4.88L288.84-4.88Q287.65-8.18 287.65-14.65L287.65-14.65 287.65-15.89Q287.65-23.63 290.87-26.76L290.87-26.76Q293.77-29.54 300.56-29.54L300.56-29.54Q307.18-29.54 309.59-26.27L309.59-26.27Q310.77-24.68 311.14-22.42 311.52-20.17 311.52-18.12L311.52-18.12Q311.52-14.92 311.38-13.16L311.38-13.16Q307.93-13.01 305.2-13.01L305.2-13.01Q305.2-13.01 301.27-13.01L301.27-13.01Q295.12-13.01 291.8-13.55L291.8-13.55Q291.8-7.93 293.21-5.71L293.21-5.71Q294.95-3 300.12-3 305.3-3 310.03-5.03L310.03-5.03ZM291.8-16.41L307.4-16.41 307.4-18.75Q307.4-22.58 305.91-24.22L305.91-24.22Q304.25-26.05 300.17-26.05L300.17-26.05Q295.29-26.05 293.51-23.93L293.51-23.93Q291.8-21.9 291.8-16.41L291.8-16.41Z" opacity="1" transform="matrix(1,0,0,1,0,0)" fill="#ff2222" class="slogan-text-1" data-fill-palette-color="secondary" id="text-1"></path></svg></g></svg></g></svg></g></svg></g><g transform="matrix(1,0,0,1,0,0.23619148327039596)"><svg viewBox="0 0 96.54656855721737 94.47659330815999" height="94.47659330815999" width="96.54656855721737"><g><svg xmlns="http://www.w3.org/2000/svg" xmlns:xlink="http://www.w3.org/1999/xlink" version="1.1" x="0" y="0" viewBox="10.507114874611862 10.011456180001678 79.49288512538814 77.78854381999832" style="enable-background:new 0 0 100 100;" xml:space="preserve" height="94.47659330815999" width="96.54656855721737" class="icon-icon-0" data-fill-palette-color="accent" id="icon-0"><path d="M20.2 37.3L20.2 37.3l5.3-12.1 0 0L20.2 37.3zM15.8 38.4L15.8 38.4 15.8 38.4 15.8 38.4zM25.5 25.1L25.5 25.1 25.5 25.1 25.5 25.1zM20.2 37.3l9-2.2L20.2 37.3 20.2 37.3zM25.5 25.1L25.5 25.1l-5.3 12.1L25.5 25.1zM25.5 25.1L25.5 25.1 25.5 25.1 25.5 25.1zM86.4 54.7L86.4 54.7 86.4 54.7 86.4 54.7 86.4 54.7 86.4 54.7zM86.4 54.6L86.4 54.6 86.4 54.6 86.4 54.6zM90 45.8V75c0 7-5.7 12.8-12.8 12.8H24.8C17.8 87.8 12 82 12 75V63.2c0-1 0.8-1.8 1.9-1.8 1 0 1.7 0.9 1.7 1.9v11.9c0 5 4 9 9 9h52.6c5.1 0 9.2-4.1 9.2-9.2V58.3H15.6c-2 0-3.6-1.6-3.6-3.6V42.3l-1.1-4.2c-0.8-3.3-0.4-6.6 1.4-9.5 1.8-3 4.6-5 8-5.9l50.6-12.3c1.9-0.5 3.7-0.5 5.5-0.1 1.2 0.2 2.4 0.6 3.4 1.1 3.2 1.6 5.8 4.5 6.7 8.2l0.2 0.7c0.3 1.1 0.1 2.3-0.5 3.3-0.6 1-1.6 1.7-2.8 2L19.1 41.3l0 0.3 11.3-0.1h2.9 11.2 2.9 11.2 2.9 11.2 2.9 10.1C88.1 41.5 90 43.4 90 45.8zM74.2 24.2l8.4-2c0.3-0.1 0.5-0.3 0.5-0.4 0.1-0.1 0.1-0.3 0.1-0.6L83 20.5c-0.7-2.6-2.4-4.7-4.7-5.8L74.2 24.2zM66.1 15.3l-5.3 12.2 9.1-2.2 5.1-11.6c-0.3 0-0.6 0-0.9 0-0.7 0-1.5 0.1-2.3 0.3L66.1 15.3zM52.5 18.6l-5.3 12.2 9.2-2.2 5.3-12.2L52.5 18.6zM39 21.9L33.6 34l9.2-2.2 5.3-12.2L39 21.9zM25.5 25.1l-5.3 12.1 0 0 0 0 9-2.2 5.3-12.2L25.5 25.1 25.5 25.1 25.5 25.1 25.5 25.1l-5.3 12.1L25.5 25.1 25.5 25.1zM22.9 22.3L22.9 22.3 22.9 22.3zM21.2 26.2L21.2 26.2 21.2 26.2zM15.8 38.4L15.8 38.4 15.8 38.4l5.3-12.2c-2.4 0.6-4.5 2.1-5.8 4.2-0.9 1.4-1.3 3-1.3 4.6 0 0.7 0.1 1.5 0.3 2.2l0.4 1.4L15.8 38.4zM25.4 54.7l-7.9-9.6h-1.9v8.6c0 0.6 0.5 1 1 1H25.4zM30.1 54.7h9.4l-7.9-9.6h-9.4L30.1 54.7 30.1 54.7 30.1 54.7 30.1 54.7zM44.1 54.7h9.4l-7.9-9.6h-9.4L44.1 54.7 44.1 54.7 44.1 54.7 44.1 54.7zM58.2 54.7h9.4l-7.9-9.6h-9.4L58.2 54.7 58.2 54.7 58.2 54.7 58.2 54.7zM72.3 54.7h9.4l-7.9-9.6h-9.4L72.3 54.7 72.3 54.7 72.3 54.7 72.3 54.7zM86.4 54.5L86.4 54.5 86.4 54.5 86.4 54.5V46c0-0.5-0.4-0.9-0.9-0.9h-7L86.4 54.5zM86.5 54.7L86.5 54.7 86.5 54.7 86.5 54.7 86.5 54.7 86.5 54.7zM39.7 68.1l21.2 0c0.4 0 0.9-0.2 1.2-0.5 0.3-0.3 0.5-0.7 0.5-1.2 0-0.4-0.2-0.9-0.5-1.2-0.3-0.3-0.7-0.5-1.2-0.5l-21.2 0c-0.4 0-0.9 0.2-1.2 0.5-0.4 0.4-0.6 1.1-0.4 1.7 0.1 0.3 0.2 0.5 0.4 0.7C38.8 67.9 39.2 68.1 39.7 68.1zM30.1 54.7L30.1 54.7 30.1 54.7 30.1 54.7zM44.2 54.7L44.2 54.7 44.2 54.7 44.2 54.7zM72.4 54.7L72.4 54.7 72.4 54.7 72.4 54.7zM58.3 54.7L58.3 54.7 58.3 54.7 58.3 54.7z" fill="#2576a3" data-fill-palette-color="accent"></path></svg></g></svg></g></svg></g><defs></defs></svg><rect width="395.52" height="72.11966921138354" fill="none" stroke="none" visibility="hidden"></rect></g></svg></g></svg>